<svg viewBox="0 0 16 16" xmlns="http://www.w3.org/2000/svg"><path d="M11.96 3.353v-1.99c0-.734-.594-1.328-1.328-1.328h-5.31c-.733 0-1.328.594-1.328 1.327v1.992H1.837a.83.83 0 0 0 0 1.659h.18v9.625c0 .733.594 1.327 1.327 1.327l9.312-.004c.734 0 1.328-.594 1.328-1.328V5.008l.133.005a.83.83 0 0 0 0-1.66H11.96zm-1.66 0H5.654v-.929c0-.404.325-.73.73-.73H9.57c.405 0 .73.326.73.73v.93zM6.007 6.277v7.441c0 .341-.45.62-1 .62s-1-.279-1-.62v-7.44c0-.341.45-.62 1-.62s1 .279 1 .62zm3 0v7.441c0 .341-.45.62-1 .62s-1-.279-1-.62v-7.44c0-.341.45-.62 1-.62s1 .279 1 .62zm3 0v7.441c0 .341-.45.62-1 .62s-1-.279-1-.62v-7.44c0-.341.45-.62 1-.62.097 0 .19.008.278.024.416.075.722.314.722.595z" fill="#888"/></svg>