<svg xmlns="http://www.w3.org/2000/svg" viewBox="0 0 128 128" role="img" aria-label="OnFire Extensions Manager logo">
	<defs>
		<linearGradient id="badge" x1="18" y1="12" x2="110" y2="118" gradientUnits="userSpaceOnUse">
			<stop stop-color="#20293d" />
			<stop offset="1" stop-color="#111724" />
		</linearGradient>
		<linearGradient id="flame" x1="43" y1="24" x2="88" y2="99" gradientUnits="userSpaceOnUse">
			<stop stop-color="#ffde64" />
			<stop offset="0.45" stop-color="#ff7a2f" />
			<stop offset="1" stop-color="#f23030" />
		</linearGradient>
		<filter id="shadow" x="-20%" y="-20%" width="140%" height="140%">
			<feDropShadow dx="0" dy="6" stdDeviation="5" flood-color="#000" flood-opacity="0.32" />
		</filter>
	</defs>
	<rect x="10" y="9" width="108" height="108" rx="26" fill="url(#badge)" filter="url(#shadow)" />
	<rect x="12.5" y="11.5" width="103" height="103" rx="24" fill="none" stroke="#ff6535" stroke-width="4" />
	<rect x="19" y="18" width="90" height="90" rx="19" fill="none" stroke="#ffd25c" stroke-opacity="0.24" stroke-width="2" />
	<g opacity="0.72">
		<rect x="31" y="78" width="13" height="13" rx="3" fill="#536987" />
		<rect x="50" y="78" width="13" height="13" rx="3" fill="#43536f" />
		<rect x="69" y="78" width="13" height="13" rx="3" fill="#43536f" />
		<rect x="88" y="78" width="13" height="13" rx="3" fill="#536987" />
		<rect x="40" y="96" width="13" height="13" rx="3" fill="#43536f" />
		<rect x="59" y="96" width="13" height="13" rx="3" fill="#536987" />
		<rect x="78" y="96" width="13" height="13" rx="3" fill="#43536f" />
	</g>
	<path fill="url(#flame)" d="M64 21c9 13 15 21 12 33 7-6 14-8 19-5 6 14 3 29-8 39-7 7-15 11-23 12-9-1-17-5-24-12-10-11-11-25-5-38 4-7 11-9 16-17 1-5 4-10 13-12Z" />
	<path fill="#ffb63d" d="M63 37c7 9 12 18 8 28 4-4 8-6 12-5 4 10 0 20-8 26-5 4-10 6-16 5-8-3-13-9-15-18 0-8 5-12 12-20 1-5 3-10 7-16Z" />
	<path fill="#ffe06c" d="M62 53c5 6 8 12 6 20 2-2 5-3 7-2 2 7-2 14-8 17-6 2-12-1-14-7-2-8 3-14 9-28Z" />
	<circle cx="64" cy="65" r="23" fill="none" stroke="#fff" stroke-width="6" stroke-linecap="round" opacity="0.94" />
	<path d="M70 39v49M70 43h23M70 63h17" fill="none" stroke="#fff" stroke-width="7" stroke-linecap="round" stroke-linejoin="round" />
	<circle cx="94" cy="35" r="5" fill="#ffdc5f" />
</svg>
